Ground reaction force (.MOT) by Lee-Son Toolkit																		
nRows=84																		
nColumns=19																		
																		
name T_01_fixed_grf.mot																		
datacolumns 19																		
datarows 84																		
range 5 5.083																		
endheader																		
time	1_ground_force_vx	1_ground_force_vy	1_ground_force_vz	1_ground_force_px	1_ground_force_py	1_ground_force_pz	2_ground_force_vx	2_ground_force_vy	2_ground_force_vz	2_ground_force_px	2_ground_force_py	2_ground_force_pz	1_ground_torque_x	1_ground_torque_y	1_ground_torque_z	2_ground_torque_x	2_ground_torque_y	2_ground_torque_z
5	0	0	0	0	0	0	6.86164	-32.8424	-9.20006	0.0962256	0	0.120271	0	0	0	0	-3.49802	0
5.001	0	0	0	0	0	0	6.95396	-31.1099	-9.07087	0.101405	0	0.12486	0	0	0	0	-3.59059	0
5.002	0	0	0	0	0	0	6.90281	-33.7062	-9.06581	0.0914517	0	0.119344	0	0	0	0	-3.44732	0
5.003	0	0	0	0	0	0	6.94748	-33.1891	-9.24399	0.0922322	0	0.119053	0	0	0	0	-3.49464	0
5.004	0	0	0	0	0	0	7.03667	-33.3611	-9.02572	0.0916382	0	0.118158	0	0	0	0	-3.4762	0
5.005	0	0	0	0	0	0	7.03899	-32.149	-9.07194	0.0950602	0	0.1196	0	0	0	0	-3.54361	0
5.006	0	0	0	0	0	0	6.99339	-32.8416	-9.11243	0.0937327	0	0.118354	0	0	0	0	-3.50551	0
5.007	0	0	0	0	0	0	6.94844	-33.1913	-9.33518	0.0933659	0	0.11857	0	0	0	0	-3.50315	0
5.008	0	0	0	0	0	0	6.77119	-32.6654	-9.11402	0.0933142	0	0.119566	0	0	0	0	-3.48817	0
5.009	0	0	0	0	0	0	7.1739	-32.5016	-9.28851	0.0986279	0	0.119258	0	0	0	0	-3.56171	0
5.01	0	0	0	0	0	0	7.03638	-32.6693	-9.15974	0.091788	0	0.120198	0	0	0	0	-3.52407	0
5.011	0	0	0	0	0	0	6.77273	-33.0107	-8.93742	0.0946711	0	0.11871	0	0	0	0	-3.45429	0
5.012	0	0	0	0	0	0	6.81685	-32.8402	-9.11326	0.0951091	0	0.119553	0	0	0	0	-3.48463	0
5.013	0	0	0	0	0	0	6.99519	-32.6695	-9.11137	0.0965735	0	0.120196	0	0	0	0	-3.51455	0
5.014	0	0	0	0	0	0	6.95009	-33.188	-9.06709	0.0951334	0	0.118271	0	0	0	0	-3.47853	0
5.015	0	0	0	0	0	0	6.94786	-32.4958	-9.24804	0.0923885	0	0.119745	0	0	0	0	-3.53095	0
5.016	0	0	0	0	0	0	6.99519	-32.8409	-8.98148	0.0954814	0	0.117603	0	0	0	0	-3.49344	0
5.017	0	0	0	0	0	0	6.77366	-32.1476	-9.20199	0.0972037	0	0.119796	0	0	0	0	-3.52391	0
5.018	0	0	0	0	0	0	6.90413	-32.6695	-9.28975	0.0937336	0	0.11979	0	0	0	0	-3.52054	0
5.019	0	0	0	0	0	0	7.03285	-34.0557	-9.24722	0.0869603	0	0.11658	0	0	0	0	-3.46199	0
5.02	0	0	0	0	0	0	6.99397	-32.3227	-9.1158	0.0945944	0	0.122042	0	0	0	0	-3.53308	0
5.021	0	0	0	0	0	0	6.95007	-33.1871	-9.02456	0.0945557	0	0.116441	0	0	0	0	-3.47462	0
5.022	0	0	0	0	0	0	6.77229	-33.0124	-9.0662	0.0952607	0	0.121258	0	0	0	0	-3.46623	0
5.023	0	0	0	0	0	0	6.81723	-33.0146	-9.20027	0.0957936	0	0.117277	0	0	0	0	-3.48401	0
5.024	0	0	0	0	0	0	6.94846	-33.1895	-9.20098	0.0933735	0	0.120181	0	0	0	0	-3.49075	0
5.025	0	0	0	0	0	0	7.082	-33.1909	-9.15657	0.0937901	0	0.120129	0	0	0	0	-3.50229	0
5.026	0	0	0	0	0	0	6.81697	-32.8389	-9.02391	0.0951206	0	0.119448	0	0	0	0	-3.47631	0
5.027	0	0	0	0	0	0	6.99371	-32.8433	-9.20196	0.0943037	0	0.118463	0	0	0	0	-3.51392	0
5.028	0	0	0	0	0	0	6.99531	-33.0162	-9.06937	0.0961322	0	0.119475	0	0	0	0	-3.49278	0
5.029	0	0	0	0	0	0	6.86347	-32.4954	-9.15326	0.0990415	0	0.120312	0	0	0	0	-3.5118	0
5.03	0	0	0	0	0	0	6.81667	-33.0165	-9.32876	0.0963781	0	0.121009	0	0	0	0	-3.4959	0
5.031	0	0	0	0	0	0	6.90185	-33.1895	-9.33222	0.0911147	0	0.121508	0	0	0	0	-3.4975	0
5.032	0	0	0	0	0	0	6.86048	-32.8401	-9.11073	0.0944855	0	0.120152	0	0	0	0	-3.48962	0
5.033	0	0	0	0	0	0	7.03691	-33.3605	-9.02563	0.0916565	0	0.115231	0	0	0	0	-3.47628	0
5.034	0	0	0	0	0	0	6.94791	-32.3272	-9.60151	0.0934706	0	0.118414	0	0	0	0	-3.57376	0
5.035	0	0	0	0	0	0	6.94825	-33.0169	-9.28941	0.0932842	0	0.119137	0	0	0	0	-3.50779	0
5.036	0	0	0	0	0	0	7.17429	-31.9794	-9.11556	0.0983992	0	0.120323	0	0	0	0	-3.5736	0
5.037	0	0	0	0	0	0	6.99228	-32.6694	-9.20007	0.0930346	0	0.122071	0	0	0	0	-3.52263	0
5.038	0	0	0	0	0	0	6.81379	-32.8382	-9.06951	0.0910061	0	0.121845	0	0	0	0	-3.48027	0
5.039	0	0	0	0	0	0	6.68151	-32.8368	-9.07137	0.091753	0	0.120061	0	0	0	0	-3.46475	0
5.04	0	0	0	0	0	0	6.81642	-32.321	-9.15977	0.0948163	0	0.122706	0	0	0	0	-3.5159	0
5.041	0	0	0	0	0	0	7.03768	-32.6691	-9.11706	0.0929666	0	0.117755	0	0	0	0	-3.52023	0
5.042	0	0	0	0	0	0	6.7708	-33.013	-9.20149	0.092932	0	0.117842	0	0	0	0	-3.47873	0
5.043	0	0	0	0	0	0	6.9938	-33.0153	-9.06803	0.094393	0	0.12065	0	0	0	0	-3.49254	0
5.044	0	0	0	0	0	0	7.03738	-32.3286	-9.55689	0.0945384	0	0.12018	0	0	0	0	-3.58026	0
5.045	0	0	0	0	0	0	6.73052	-32.3221	-9.24293	0.0997152	0	0.122271	0	0	0	0	-3.51341	0
5.046	0	0	0	0	0	0	6.9907	-33.3614	-9.15204	0.0911384	0	0.121852	0	0	0	0	-3.48255	0
5.047	0	0	0	0	0	0	7.25769	-32.5016	-9.37894	0.0919954	0	0.121112	0	0	0	0	-3.58045	0
5.048	0	0	0	0	0	0	6.90489	-32.3241	-9.33355	0.0953153	0	0.122337	0	0	0	0	-3.54309	0
5.049	0	0	0	0	0	0	6.81409	-32.8421	-9.33443	0.092171	0	0.120992	0	0	0	0	-3.50508	0
5.05	0	0	0	0	0	0	6.86009	-33.0172	-9.37653	0.0945619	0	0.11926	0	0	0	0	-3.50551	0
5.051	0	0	0	0	0	0	6.77271	-32.1469	-9.15479	0.0966074	0	0.124001	0	0	0	0	-3.51933	0
5.052	0	0	0	0	0	0	6.90448	-33.1874	-9.11266	0.0934426	0	0.118308	0	0	0	0	-3.47747	0
5.053	0	0	0	0	0	0	6.99388	-31.9754	-9.11325	0.0950299	0	0.123363	0	0	0	0	-3.55153	0
5.054	0	0	0	0	0	0	6.77303	-32.4958	-9.28955	0.0967549	0	0.121048	0	0	0	0	-3.51389	0
5.055	0	0	0	0	0	0	6.81534	-32.8428	-9.33709	0.0933289	0	0.119206	0	0	0	0	-3.50545	0
5.056	0	0	0	0	0	0	6.99419	-32.4963	-9.15677	0.0953018	0	0.12087	0	0	0	0	-3.52786	0
5.057	0	0	0	0	0	0	7.08431	-32.3268	-9.2841	0.0986804	0	0.124138	0	0	0	0	-3.55994	0
5.058	0	0	0	0	0	0	6.99382	-32.3238	-9.20127	0.095199	0	0.123377	0	0	0	0	-3.54122	0
5.059	0	0	0	0	0	0	7.12749	-32.4992	-9.20142	0.0957104	0	0.122127	0	0	0	0	-3.54801	0
5.06	0	0	0	0	0	0	6.8606	-32.4948	-9.20064	0.0948806	0	0.120925	0	0	0	0	-3.51603	0
5.061	0	0	0	0	0	0	6.95433	-31.633	-9.28763	0.102807	0	0.123141	0	0	0	0	-3.58251	0
5.062	0	0	0	0	0	0	6.99318	-32.497	-9.24578	0.0941128	0	0.120969	0	0	0	0	-3.53618	0
5.063	0	0	0	0	0	0	6.90379	-32.8402	-9.113	0.0926645	0	0.119534	0	0	0	0	-3.49502	0
5.064	0	0	0	0	0	0	7.03911	-32.4966	-9.11301	0.0958343	0	0.120817	0	0	0	0	-3.5291	0
5.065	0	0	0	0	0	0	6.81385	-32.3206	-9.24946	0.0912497	0	0.121576	0	0	0	0	-3.52422	0
5.066	0	0	0	0	0	0	6.94959	-32.1498	-9.20295	0.0951614	0	0.122813	0	0	0	0	-3.54536	0
5.067	0	0	0	0	0	0	6.90343	-33.1871	-9.11216	0.0922803	0	0.120067	0	0	0	0	-3.47733	0
5.068	0	0	0	0	0	0	6.68174	-33.1859	-9.24034	0.093731	0	0.121435	0	0	0	0	-3.4632	0
5.069	0	0	0	0	0	0	6.99139	-32.4966	-9.29031	0.0917479	0	0.121005	0	0	0	0	-3.54023	0
5.07	0	0	0	0	0	0	6.81713	-33.0128	-9.06835	0.0952104	0	0.117699	0	0	0	0	-3.47178	0
5.071	0	0	0	0	0	0	6.86153	-32.3237	-9.3333	0.096571	0	0.120535	0	0	0	0	-3.53786	0
5.072	0	0	0	0	0	0	6.99175	-32.8405	-9.06961	0.091378	0	0.120061	0	0	0	0	-3.50141	0
5.073	0	0	0	0	0	0	6.90428	-33.186	-9.02744	0.0922777	0	0.116414	0	0	0	0	-3.4696	0
5.074	0	0	0	0	0	0	6.99677	-31.805	-9.19964	0.0997741	0	0.124183	0	0	0	0	-3.56962	0
5.075	0	0	0	0	0	0	6.95002	-31.6311	-9.28966	0.0967151	0	0.125557	0	0	0	0	-3.5823	0
5.076	0	0	0	0	0	0	6.59314	-32.8364	-9.15567	0.093063	0	0.119601	0	0	0	0	-3.46223	0
5.077	0	0	0	0	0	0	6.81658	-31.8021	-9.24458	0.0963637	0	0.12667	0	0	0	0	-3.55198	0
5.078	0	0	0	0	0	0	6.86004	-32.4949	-9.20085	0.0942781	0	0.122723	0	0	0	0	-3.516	0
5.079	0	0	0	0	0	0	6.90391	-32.8413	-9.15661	0.0932401	0	0.12138	0	0	0	0	-3.49911	0
5.08	0	0	0	0	0	0	6.63831	-33.0104	-9.15019	0.0948825	0	0.120198	0	0	0	0	-3.45838	0
5.081	0	0	0	0	0	0	6.81556	-32.8398	-9.15449	0.0939585	0	0.120205	0	0	0	0	-3.48846	0
5.082	0	0	0	0	0	0	6.99289	-32.669	-9.2023	0.0930463	0	0.117279	0	0	0	0	-3.52298	0
5.083	0	0	0	0	0	0	6.90118	-33.0155	-9.33418	0.0898413	0	0.120346	0	0	0	0	-3.50653	0
